# xmcd
#
# Track frame offsets: 
#        150
#        18469
#        64729
#        90919
#        130244
#        148096
#
# Disc length: 2297 seconds
#
# Revision: 3
# Processed by: cddbd v1.5.2PL0 Copyright (c) Steve Scherf et al.
# Submitted via: ExactAudioCopy v1.3
#
DISCID=4b08f706
DTITLE=Albert King - Live Wire.Blues Power
DYEAR=1968
DGENRE=Modern Electric Blues
TTITLE0=Watermelon Man
TTITLE1=Blues Power
TTITLE2=Night Stomp
TTITLE3=Blues At Sunrise
TTITLE4=Please Love Me
TTITLE5=Look Out
EXTD=
EXTT0=
EXTT1=
EXTT2=
EXTT3=
EXTT4=
EXTT5=
PLAYORDER=
